<svg width="100" height="50" viewBox="0 0 100 50" xmlns="http://www.w3.org/2000/svg">
  <!-- Background -->
  <rect width="100" height="50" fill="#FFFFFF" />
  
  <!-- Mountains -->
  <path d="M0 50L20 20L30 30L40 15L50 35L60 25L70 10L80 30L90 20L100 40V50H0Z" fill="#0F766E" fill-opacity="0.1" />
  <path d="M0 50L10 30L20 40L30 20L40 35L50 15L60 40L70 25L80 35L90 15L100 30V50H0Z" fill="#7C3AED" fill-opacity="0.1" />
  
  <!-- Snow Caps -->
  <path d="M20 20L22 18L24 20L26 19L28 21L30 30" stroke="#F9FAFB" stroke-width="1" fill="none" />
  <path d="M40 15L42 13L44 14L46 12L48 15L50 35" stroke="#F9FAFB" stroke-width="1" fill="none" />
  <path d="M70 10L72 8L74 9L76 7L78 10L80 30" stroke="#F9FAFB" stroke-width="1" fill="none" />
  <path d="M90 15L92 13L94 14L96 12L98 15L100 30" stroke="#F9FAFB" stroke-width="1" fill="none" />
</svg>

